<svg width="699" height="230" viewBox="0 0 699 230" fill="none" xmlns="http://www.w3.org/2000/svg">
<g opacity="0.91" filter="url(#filter0_d_11760_14953)">
<path d="M192.149 334.756C168.482 246.809 240.215 160.152 310.218 136.512C390.892 109.28 449.781 172.325 502.084 128.204C549.823 87.9647 525.152 14.857 561.686 -11.0255C595.262 -34.8098 671.697 -12.466 853.462 167.977" stroke="url(#paint0_linear_11760_14953)" stroke-miterlimit="10"/>
<path d="M852.242 178.96C672.878 1.20427 595.756 -22.8078 560.896 -0.762415C535.08 15.6261 537.754 54.4321 526.237 89.6006C520.654 107.581 511.075 122.714 498.36 133.641C456.729 169.482 411.724 138.881 352.734 139.853C337.678 140.049 323.041 142.403 309.127 146.866C238.312 169.248 164.83 248.38 185.869 333.753" stroke="url(#paint1_linear_11760_14953)" stroke-miterlimit="10"/>
<path d="M851 189.917C674.042 14.8645 596.273 -10.8132 560.216 9.47957C533.712 24.3995 535.092 61.7699 522.99 95.5665C516.947 113.135 507.288 128.003 494.75 139.037C453.942 174.935 410.527 148.392 351.673 150.247C336.702 150.682 322.115 153.012 308.145 157.198C236.615 178.604 161.283 249.913 179.693 332.712" stroke="url(#paint2_linear_11760_14953)" stroke-miterlimit="10"/>
<path d="M849.752 200.844C675.241 28.5306 596.797 1.2141 559.48 19.7265C532.278 33.215 532.397 69.1043 519.682 101.556C513.199 118.696 503.473 133.302 491.124 144.441C451.094 180.412 409.365 157.875 350.596 160.648C335.69 161.286 321.13 163.581 307.097 167.506C234.801 187.771 157.68 251.418 173.462 331.642" stroke="url(#paint3_linear_11760_14953)" stroke-miterlimit="10"/>
<path d="M848.533 211.846C676.413 42.1935 597.35 13.2515 558.739 29.9955C530.879 42.0551 529.682 76.4832 516.348 107.541C509.419 124.263 499.606 138.625 487.421 149.876C448.168 185.919 408.098 167.416 349.385 171.099C334.587 171.971 320.092 174.242 306.028 177.89C232.955 197.018 154.052 253.017 167.194 330.67" stroke="url(#paint4_linear_11760_14953)" stroke-miterlimit="10"/>
<path d="M847.345 222.805C677.594 55.8571 597.317 23.8888 557.991 40.2547C529.904 51.896 526.924 83.7643 513.04 113.538C505.663 129.816 495.762 143.934 483.75 155.302C445.275 191.417 406.885 176.94 348.316 181.521C333.599 182.591 319.144 184.828 305.038 188.217C231.165 206.149 150.498 254.544 161.017 329.635" stroke="url(#paint5_linear_11760_14953)" stroke-miterlimit="10"/>
<path d="M846.052 233.802C678.767 69.5408 598.491 37.4403 557.223 50.4387C528.149 59.8036 524.176 91.1428 509.724 119.554C501.911 135.38 491.924 149.259 480.083 160.744C442.387 196.931 405.638 186.477 347.199 191.959C332.571 193.246 318.157 195.46 304.013 198.589C229.363 215.384 146.892 256.073 154.8 328.631" stroke="url(#paint6_linear_11760_14953)" stroke-miterlimit="10"/>
<path d="M844.821 244.779C679.973 83.1986 599.045 49.4521 556.512 60.7883C526.78 68.6578 521.36 98.3989 506.403 125.543C498.159 140.902 488.077 154.54 476.398 166.129C439.497 202.399 404.401 195.997 346.065 202.34C332.499 203.835 318.138 205.744 302.965 208.89C227.51 224.507 143.308 257.647 148.577 327.6" stroke="url(#paint7_linear_11760_14953)" stroke-miterlimit="10"/>
<path d="M843.601 255.756C681.14 96.8923 599.674 61.6263 555.78 71.0187C525.43 77.5283 518.551 105.675 503.066 131.526C494.389 146.412 484.212 159.83 472.705 171.556C436.582 207.897 403.144 205.495 344.929 212.777C331.374 214.466 317.058 216.393 301.903 219.25C225.751 233.669 139.734 259.206 142.369 326.567" stroke="url(#paint8_linear_11760_14953)" stroke-miterlimit="10"/>
<path d="M842.35 266.725C682.31 110.566 600.279 73.7744 555.052 81.3295C524.1 86.4898 515.683 113.004 499.79 137.536C490.694 151.937 480.426 165.139 469.095 177.002C433.739 213.418 401.958 215.049 343.835 223.163C330.349 225.028 316.023 226.959 300.89 229.541C223.843 242.748 136.114 260.681 136.126 325.48" stroke="url(#paint9_linear_11760_14953)" stroke-miterlimit="10"/>
<path d="M841.12 277.706C683.498 124.24 600.901 85.9563 554.347 91.589C522.8 95.4148 512.879 120.251 496.51 143.554C486.989 157.449 476.618 170.433 465.457 182.43C430.892 218.914 400.764 224.563 342.779 233.658C329.315 235.748 315.018 237.652 299.925 239.971C222.063 251.938 132.599 262.308 129.961 324.537" stroke="url(#paint10_linear_11760_14953)" stroke-miterlimit="10"/>
<path d="M839.896 288.69C684.685 137.935 601.506 98.1491 553.591 101.872C521.444 104.382 509.996 127.515 493.196 149.573C483.536 162.247 473.598 175.103 461.781 187.878C427.988 224.418 399.525 234.113 341.655 244.099C328.232 246.39 313.951 248.271 298.865 250.339C220.188 261.066 128.979 263.878 123.73 323.541" stroke="url(#paint11_linear_11760_14953)" stroke-miterlimit="10"/>
<path d="M838.668 299.676C685.886 151.678 602.199 110.348 552.873 112.162C520.119 113.341 507.1 134.754 489.892 155.593C479.739 167.893 469.676 180.526 458.127 193.322C425.129 229.976 398.313 243.641 340.553 254.534C327.176 257.042 312.902 258.904 297.873 260.686C218.381 270.14 125.427 265.428 117.556 322.527" stroke="url(#paint12_linear_11760_14953)" stroke-miterlimit="10"/>
<path d="M837.456 310.656C687.053 165.318 602.768 122.609 552.15 122.456C518.807 122.35 504.194 141.984 486.589 161.633C475.92 173.534 465.75 185.955 454.519 198.77C422.272 235.453 397.153 253.184 339.458 265.002C326.104 267.701 311.859 269.537 296.865 271.073C216.537 279.23 121.85 266.991 111.357 321.527" stroke="url(#paint13_linear_11760_14953)" stroke-miterlimit="10"/>
<path d="M836.196 321.644C688.24 179.009 603.443 134.876 551.426 132.745C517.478 131.342 501.276 149.178 483.303 167.644C472.112 179.13 461.823 191.377 450.825 204.224C419.381 240.969 395.892 262.723 338.364 275.428C324.425 278.314 310.228 280.3 295.83 281.379C214.717 288.303 118.27 268.599 105.172 320.515" stroke="url(#paint14_linear_11760_14953)" stroke-miterlimit="10"/>
<path d="M834.969 332.639C689.428 192.722 604.006 147.139 550.743 143.025C516.195 140.34 498.383 156.354 479.997 173.685C468.279 184.743 457.894 196.807 447.181 209.685C416.504 246.502 394.685 272.281 337.297 285.867C323.456 288.97 309.283 290.945 294.867 291.781C212.862 297.295 114.746 270.162 98.9593 319.471" stroke="url(#paint15_linear_11760_14953)" stroke-miterlimit="10"/>
<path d="M833.73 343.639C690.61 206.422 604.597 159.511 549.97 153.341C514.858 149.396 495.4 163.534 476.698 179.713C464.447 190.328 453.984 202.251 443.538 215.149C413.652 252.031 393.474 281.827 336.175 296.328C322.425 299.627 308.269 301.577 293.833 302.161C211.05 306.39 111.187 271.758 92.7971 318.547" stroke="url(#paint16_linear_11760_14953)" stroke-miterlimit="10"/>
<path d="M832.488 354.733C691.847 220.342 605.32 171.969 549.318 163.822C513.58 158.61 492.523 170.836 473.491 185.913C460.653 196.068 450.148 207.835 439.976 220.763C410.864 257.669 392.372 291.502 335.196 306.904C321.539 310.39 307.4 312.314 292.951 312.654C209.357 315.533 107.786 273.465 86.7803 317.673" stroke="url(#paint17_linear_11760_14953)" stroke-miterlimit="10"/>
<path d="M831.256 365.827C693.089 234.113 605.986 184.487 548.673 174.359C512.344 167.903 489.677 178.189 470.31 192.217C456.983 201.927 446.333 213.542 436.454 226.476C408.139 263.464 391.296 301.276 334.24 317.53C320.676 321.201 306.553 323.1 292.092 323.197C207.684 324.712 104.378 275.31 80.7983 316.875" stroke="url(#paint18_linear_11760_14953)" stroke-miterlimit="10"/>
<path d="M830.032 376.919C694.266 247.989 606.65 197.004 548.012 184.787C511.064 177.081 486.788 185.398 467.076 198.349C453.175 207.496 442.499 219.064 432.89 232.046C405.371 269.083 390.184 310.884 333.263 328.065C319.796 331.93 305.686 333.804 291.214 333.649C205.986 333.755 101.028 276.932 74.7907 315.97" stroke="url(#paint19_linear_11760_14953)" stroke-miterlimit="10"/>
<path d="M828.782 388C695.472 261.83 607.333 209.592 547.392 195.247C509.85 186.318 483.966 192.634 463.925 204.553C449.456 213.152 438.721 224.653 429.381 237.616C402.642 274.725 389.114 320.526 332.324 338.586C318.945 342.63 304.843 344.48 290.361 344.091C204.326 342.652 97.6999 278.67 68.8181 315.114" stroke="url(#paint20_linear_11760_14953)" stroke-miterlimit="10"/>
<path d="M827.574 399.083C615.196 198.765 513.787 182.342 460.687 210.79C402.72 241.842 407.792 323.576 331.325 349.177C241.617 379.194 99.6286 274.691 62.8235 314.294" stroke="url(#paint21_linear_11760_14953)" stroke-miterlimit="10"/>
</g>
<defs>
<filter id="filter0_d_11760_14953" x="58.4458" y="-19.3706" width="799.367" height="426.808" filterUnits="userSpaceOnUse" color-interpolation-filters="sRGB">
<feFlood flood-opacity="0" result="BackgroundImageFix"/>
<feColorMatrix in="SourceAlpha" type="matrix" values="0 0 0 0 0 0 0 0 0 0 0 0 0 0 0 0 0 0 127 0" result="hardAlpha"/>
<feOffset dy="4"/>
<feGaussianBlur stdDeviation="2"/>
<feComposite in2="hardAlpha" operator="out"/>
<feColorMatrix type="matrix" values="0 0 0 0 0 0 0 0 0 0 0 0 0 0 0 0 0 0 0.25 0"/>
<feBlend mode="normal" in2="BackgroundImageFix" result="effect1_dropShadow_11760_14953"/>
<feBlend mode="normal" in="SourceGraphic" in2="effect1_dropShadow_11760_14953" result="shape"/>
</filter>
<linearGradient id="paint0_linear_11760_14953" x1="437.387" y1="31.5222" x2="527.066" y2="283.939" gradientUnits="userSpaceOnUse">
<stop stop-color="#F2EBFD"/>
</linearGradient>
<linearGradient id="paint1_linear_11760_14953" x1="435.976" y1="42.5302" x2="525.668" y2="294.985" gradientUnits="userSpaceOnUse">
<stop stop-color="#F2EBFD"/>
</linearGradient>
<linearGradient id="paint2_linear_11760_14953" x1="434.583" y1="53.4501" x2="524.304" y2="305.985" gradientUnits="userSpaceOnUse">
<stop stop-color="#F2EBFD"/>
</linearGradient>
<linearGradient id="paint3_linear_11760_14953" x1="433.137" y1="64.2801" x2="522.911" y2="316.964" gradientUnits="userSpaceOnUse">
<stop stop-color="#F2EBFD"/>
</linearGradient>
<linearGradient id="paint4_linear_11760_14953" x1="431.627" y1="75.0431" x2="521.508" y2="328.031" gradientUnits="userSpaceOnUse">
<stop stop-color="#F2EBFD"/>
</linearGradient>
<linearGradient id="paint5_linear_11760_14953" x1="430.123" y1="85.6153" x2="520.161" y2="339.046" gradientUnits="userSpaceOnUse">
<stop stop-color="#F2EBFD"/>
</linearGradient>
<linearGradient id="paint6_linear_11760_14953" x1="428.516" y1="96.1421" x2="518.735" y2="350.088" gradientUnits="userSpaceOnUse">
<stop stop-color="#F2EBFD"/>
</linearGradient>
<linearGradient id="paint7_linear_11760_14953" x1="426.935" y1="106.641" x2="517.343" y2="361.121" gradientUnits="userSpaceOnUse">
<stop stop-color="#F2EBFD"/>
</linearGradient>
<linearGradient id="paint8_linear_11760_14953" x1="425.278" y1="116.911" x2="515.956" y2="372.155" gradientUnits="userSpaceOnUse">
<stop stop-color="#F2EBFD"/>
</linearGradient>
<linearGradient id="paint9_linear_11760_14953" x1="423.58" y1="127.129" x2="514.542" y2="383.179" gradientUnits="userSpaceOnUse">
<stop stop-color="#F2EBFD"/>
</linearGradient>
<linearGradient id="paint10_linear_11760_14953" x1="421.83" y1="137.163" x2="513.146" y2="394.217" gradientUnits="userSpaceOnUse">
<stop stop-color="#F2EBFD"/>
</linearGradient>
<linearGradient id="paint11_linear_11760_14953" x1="420.003" y1="147.053" x2="511.728" y2="405.265" gradientUnits="userSpaceOnUse">
<stop stop-color="#F2EBFD"/>
</linearGradient>
<linearGradient id="paint12_linear_11760_14953" x1="418.136" y1="156.766" x2="510.331" y2="416.307" gradientUnits="userSpaceOnUse">
<stop stop-color="#F2EBFD"/>
</linearGradient>
<linearGradient id="paint13_linear_11760_14953" x1="416.194" y1="166.298" x2="508.922" y2="427.353" gradientUnits="userSpaceOnUse">
<stop stop-color="#F2EBFD"/>
</linearGradient>
<linearGradient id="paint14_linear_11760_14953" x1="414.142" y1="175.591" x2="507.488" y2="438.397" gradientUnits="userSpaceOnUse">
<stop stop-color="#F2EBFD"/>
</linearGradient>
<linearGradient id="paint15_linear_11760_14953" x1="411.999" y1="184.631" x2="506.058" y2="449.459" gradientUnits="userSpaceOnUse">
<stop stop-color="#F2EBFD"/>
</linearGradient>
<linearGradient id="paint16_linear_11760_14953" x1="409.74" y1="193.387" x2="504.613" y2="460.525" gradientUnits="userSpaceOnUse">
<stop stop-color="#F2EBFD"/>
</linearGradient>
<linearGradient id="paint17_linear_11760_14953" x1="404.781" y1="195.11" x2="502.995" y2="471.723" gradientUnits="userSpaceOnUse">
<stop stop-color="#F2EBFD"/>
</linearGradient>
<linearGradient id="paint18_linear_11760_14953" x1="399.587" y1="196.213" x2="501.364" y2="482.93" gradientUnits="userSpaceOnUse">
<stop stop-color="#F2EBFD"/>
</linearGradient>
<linearGradient id="paint19_linear_11760_14953" x1="394.232" y1="196.87" x2="499.731" y2="494.14" gradientUnits="userSpaceOnUse">
<stop stop-color="#F2EBFD"/>
</linearGradient>
<linearGradient id="paint20_linear_11760_14953" x1="388.794" y1="197.32" x2="498.082" y2="505.337" gradientUnits="userSpaceOnUse">
<stop stop-color="#F2EBFD"/>
</linearGradient>
<linearGradient id="paint21_linear_11760_14953" x1="383.276" y1="197.558" x2="496.434" y2="516.55" gradientUnits="userSpaceOnUse">
<stop stop-color="#F2EBFD"/>
</linearGradient>
</defs>
</svg>
