<svg width="50" height="30" viewBox="0 0 50 30" fill="none" xmlns="http://www.w3.org/2000/svg">
<path d="M26.166 28.6449C26.1563 29.0685 25.9408 29.2218 25.5438 29.105C24.4327 28.7739 23.3263 28.4282 22.22 28.0874C22.0917 28.0485 21.9683 27.9803 21.84 27.9681C21.012 27.8951 20.7917 27.3522 20.6537 26.6171C20.3899 25.2076 20.0292 23.8151 19.712 22.4129C19.6418 22.1062 19.5039 21.9236 19.1601 21.87C17.3881 21.5925 15.6208 21.2931 13.8512 21.001C13.752 20.9839 13.6551 20.962 13.5559 20.9499C12.8103 20.8622 12.7086 20.9401 12.5561 21.6802C12.3576 22.6271 12.1518 23.5741 11.9557 24.5211C11.8661 24.952 11.6337 25.0493 11.2295 24.9252C10.738 24.7742 10.2321 24.6817 9.73823 24.5381C9.16691 24.3726 9.01682 24.1218 9.12576 23.5327C9.71644 20.3291 10.3192 17.1279 10.9002 13.9243C11.1641 12.4636 11.365 10.9908 11.6265 9.52779C11.9242 7.86755 12.2801 6.21948 12.5682 4.55681C12.8345 3.02802 12.6456 3.03776 14.4225 2.52411C15.984 2.07131 17.5478 1.62096 19.1093 1.1706C19.4942 1.05862 19.6733 1.27284 19.7532 1.60635C19.942 2.38535 20.1236 3.16678 20.3076 3.94821C20.8038 6.07829 21.2977 8.20593 21.7915 10.336C22.3338 12.6779 22.8664 15.0222 23.4183 17.364C23.6677 18.4205 23.9654 19.4649 24.2172 20.5214C24.5973 22.1135 24.9483 23.7129 25.326 25.3049C25.5632 26.3128 25.8271 27.3157 26.0788 28.3211C26.1103 28.4501 26.1466 28.5767 26.166 28.6522V28.6449ZM18.3975 17.6975C18.8914 17.7316 18.9664 17.5904 18.8454 16.9989C18.3733 14.6935 17.9158 12.3833 17.4461 10.078C17.1944 8.83399 16.9233 7.5949 16.6715 6.35094C16.6061 6.02473 16.4391 5.91032 16.1147 5.93466C15.4732 5.98091 15.2989 6.17566 15.1657 6.92301C14.7372 9.3233 14.2918 11.7212 13.8512 14.119C13.689 15.0051 13.522 15.8912 13.3574 16.7773C13.3017 17.0816 13.4009 17.2496 13.735 17.2764C15.2892 17.4103 16.8434 17.5539 18.3975 17.6951V17.6975Z" fill="#1E1E1E"/>
<path d="M40.7186 4.81004C40.4983 6.17086 40.3046 7.40995 40.0988 8.64661C39.7236 10.9033 39.3339 13.1575 38.9683 15.4166C38.6221 17.5418 38.3098 19.6719 37.9637 21.7946C37.7652 23.0143 37.5473 24.2315 37.2931 25.4389C37.2495 25.6483 37.0147 25.9185 36.8162 25.9818C34.911 26.5684 32.9961 27.1235 31.0812 27.6712C30.4663 27.8465 30.3792 27.7905 30.2533 27.1965C29.8297 25.2052 29.4327 23.209 28.9993 21.2226C28.5345 19.0876 28.031 16.96 27.5589 14.825C26.8763 11.7407 26.2178 8.65148 25.5254 5.572C25.1454 3.87768 24.7145 2.19553 24.3029 0.508509C24.1916 0.0484133 24.2642 -0.0611332 24.7193 0.0289385C25.109 0.106838 25.4867 0.240729 25.8692 0.35271C26.9537 0.669178 28.0334 1.00756 29.1252 1.29481C29.5658 1.41166 29.7691 1.66727 29.8418 2.08111C30.2533 4.43271 30.6552 6.78432 31.074 9.13349C31.3863 10.8765 31.7228 12.6146 32.0423 14.3552C32.4877 16.7677 32.9235 19.185 33.3786 21.595C33.4198 21.8166 33.6352 22.2085 33.6715 22.1988C34.0419 22.0819 34.56 22.228 34.7343 21.7143C34.819 21.4636 34.8674 21.1982 34.911 20.9353C35.6106 16.6143 36.3078 12.2957 36.9978 7.97229C37.1842 6.80136 37.3415 5.62556 37.5207 4.45462C37.6223 3.78761 37.7869 3.66589 38.4212 3.83873C39.0772 4.01887 39.7284 4.22336 40.37 4.45462C40.5297 4.51305 40.6338 4.7224 40.7186 4.81491V4.81004Z" fill="#1E1E1E"/>
<path d="M49.9953 21.8701C49.9324 21.9553 49.8646 22.1525 49.7435 22.1915C49.3853 22.3083 49.01 22.3935 48.6348 22.4227C48.538 22.43 48.3491 22.2061 48.3249 22.0649C48.1991 21.376 48.0974 20.6797 48.0223 19.9835C47.9812 19.594 47.8141 19.4479 47.4365 19.5137C46.5698 19.6646 45.7032 19.8131 44.8341 19.9543C44.4516 20.0152 44.3257 20.2586 44.2822 20.6164C44.1781 21.4952 44.0401 22.3692 43.9408 23.248C43.8876 23.7105 43.66 23.9686 43.2242 24.0952C42.8103 24.2144 42.4133 24.3921 41.9993 24.5114C41.5732 24.6356 41.3989 24.4554 41.4716 24.0246C41.7403 22.43 42.0163 20.8355 42.2753 19.2386C42.6796 16.7507 43.079 14.2627 43.4663 11.7748C43.7568 9.91251 44.0231 8.04779 44.2967 6.18306C44.3693 5.68645 44.5267 5.55256 44.989 5.66941C45.7443 5.86416 46.4972 6.07595 47.2501 6.2853C47.7125 6.41432 47.9521 6.68941 48.0151 7.20306C48.3491 9.99041 48.7171 12.7729 49.0681 15.5554C49.2279 16.814 49.3586 18.0774 49.5354 19.3335C49.637 20.059 49.7968 20.7771 49.9324 21.4977C49.9517 21.5951 49.9687 21.6949 50.0002 21.8701H49.9953ZM45.6959 17.0525C46.1196 17.0111 46.6304 16.9405 47.146 16.9162C47.5842 16.8943 47.6665 16.6801 47.6084 16.2881C47.4728 15.4142 47.3663 14.5378 47.2452 13.6614C47.0467 12.2081 46.8603 10.7499 46.6304 9.30149C46.6013 9.11891 46.3278 8.97772 46.168 8.81705C46.0518 8.99476 45.8654 9.16273 45.8339 9.35504C45.7225 10.0634 45.6814 10.7816 45.5773 11.4924C45.3473 13.0626 45.0883 14.6255 44.8583 16.1956C44.7421 16.999 44.8268 17.0793 45.6935 17.0525H45.6959Z" fill="#1E1E1E"/>
<path d="M8.30254 23.1494C8.34128 23.8968 8.25897 23.9747 7.7627 23.9016C7.69734 23.8919 7.63197 23.8846 7.56419 23.8724C6.14074 23.6192 6.04875 23.517 5.86477 22.0832C5.78004 21.421 5.65658 20.7613 5.56943 20.0991C5.52101 19.7364 5.36366 19.5271 4.98601 19.4711C4.16534 19.3518 3.34468 19.2106 2.52644 19.0767C2.14637 19.0134 1.93334 19.1278 1.88976 19.5538C1.8244 20.2014 1.71062 20.8441 1.62347 21.4892C1.56779 21.9006 1.38623 22.1099 0.950482 21.9371C0.935957 21.9298 0.919011 21.9274 0.902065 21.9225C-0.107421 21.6498 -0.0686879 21.6547 0.0765619 20.6274C0.456632 17.9642 0.80039 15.2986 1.15867 12.6329C1.39107 10.9118 1.62347 9.19073 1.85587 7.46963C1.87766 7.30409 1.91397 7.14099 1.93092 6.97302C2.01807 6.09178 2.01807 6.07717 2.88473 5.81669C3.5674 5.60977 4.25734 5.42476 4.94485 5.23244C5.34671 5.12046 5.53311 5.29574 5.58395 5.69497C5.71468 6.72228 5.83572 7.75202 6.00275 8.77445C6.6007 12.4163 7.22769 16.0557 7.82322 19.6975C8.02173 20.9171 8.16456 22.1464 8.30254 23.1494ZM4.6713 16.45C5.13126 16.5961 5.14578 16.3234 5.09252 15.9778C4.87465 14.595 4.65435 13.2123 4.451 11.8272C4.29607 10.7877 4.17019 9.74333 4.01283 8.70629C3.99347 8.57483 3.8119 8.34357 3.76833 8.35818C3.60371 8.41173 3.45362 8.53588 3.31805 8.6576C3.26964 8.70386 3.27448 8.8134 3.26237 8.89617C2.95493 11.2283 2.6499 13.5604 2.34004 15.8901C2.2892 16.2772 2.44898 16.4549 2.83389 16.4525C3.44636 16.4476 4.06125 16.4525 4.67372 16.4525L4.6713 16.45Z" fill="#1E1E1E"/>
</svg>
