<svg width="40" height="41" viewBox="0 0 40 41" fill="none" xmlns="http://www.w3.org/2000/svg">
<rect opacity="0.1" y="0.5" width="40" height="40" rx="20" fill="#F96CAB"/>
<path d="M22.5992 16.075C22.5992 15.3583 22.3619 14.7833 21.8872 14.35C21.4125 13.9167 20.7832 13.7 19.9992 13.7C19.5159 13.7 19.0785 13.8043 18.6872 14.013C18.2959 14.2217 17.9582 14.5257 17.6742 14.925C17.4075 15.3083 17.0449 15.5293 16.5862 15.588C16.1275 15.6467 15.7319 15.5257 15.3992 15.225C15.1659 15.0083 15.0369 14.7417 15.0122 14.425C14.9875 14.1083 15.0665 13.8083 15.2492 13.525C15.7825 12.725 16.4619 12.1043 17.2872 11.663C18.1125 11.2217 19.0165 11.0007 19.9992 11C21.6159 11 22.9285 11.4583 23.9372 12.375C24.9459 13.2917 25.4499 14.4917 25.4492 15.975C25.4492 16.725 25.2909 17.4 24.9742 18C24.6575 18.6 24.0742 19.3083 23.2242 20.125C22.6075 20.7083 22.1909 21.1627 21.9742 21.488C21.7575 21.8133 21.6159 22.184 21.5492 22.6C21.4825 23 21.3115 23.3333 21.0362 23.6C20.7609 23.8667 20.4319 24 20.0492 24C19.6665 24 19.3375 23.871 19.0622 23.613C18.7869 23.355 18.6492 23.034 18.6492 22.65C18.6492 22 18.7909 21.4043 19.0742 20.863C19.3575 20.3217 19.8325 19.7507 20.4992 19.15C21.3492 18.4 21.9119 17.821 22.1872 17.413C22.4625 17.005 22.5999 16.559 22.5992 16.075ZM19.9992 30C19.4492 30 18.9785 29.8043 18.5872 29.413C18.1959 29.0217 17.9999 28.5507 17.9992 28C17.9985 27.4493 18.1945 26.9787 18.5872 26.588C18.9799 26.1973 19.4505 26.0013 19.9992 26C20.5479 25.9987 21.0189 26.1947 21.4122 26.588C21.8055 26.9813 22.0012 27.452 21.9992 28C21.9972 28.548 21.8015 29.019 21.4122 29.413C21.0229 29.807 20.5519 30.0027 19.9992 30Z" fill="#F96CAB" stroke="#F96CAB"/>
</svg>
